<svg width="184" height="38" viewBox="0 0 184 38" fill="none" xmlns="http://www.w3.org/2000/svg">
<path d="M7.62993 25.4335H6.13387L6.8819 11.2648L7.62993 25.4335ZM8.27822 37.5995H14.4121L11.0709 0.350462H3.09187L0 37.5995H5.4357L5.78478 30.8906H7.92914L8.27822 37.5995Z" fill="#E1FD2C"/>
<path d="M23.3963 38C27.9343 38 30.0288 35.0962 30.0288 31.8419V0.350462H23.5957V31.0909C23.5957 31.7418 23.3464 32.0422 22.8976 32.0422C22.4488 32.0422 22.2493 31.7418 22.2493 31.0909V0.350462H15.7663V31.8419C15.7663 35.1462 17.5616 38 22.3989 38H23.3963Z" fill="#E1FD2C"/>
<path d="M34.7496 37.5995H40.9832V6.05797H43.8257V0.350462H31.9071V6.05797H34.7496V37.5995Z" fill="#E1FD2C"/>
<path d="M59.8847 7.35968C59.8847 2.90382 57.8899 0 53.1524 0H52.155C47.4175 0 45.4227 2.75362 45.4227 7.35968V30.7404C45.4227 35.3465 47.7665 37.9499 52.155 37.9499H53.2022C57.3414 37.9499 59.8847 35.3966 59.8847 30.7404V7.35968ZM53.4017 31.2912C53.4017 31.942 53.1524 32.2925 52.6537 32.2925C52.2049 32.2925 51.9555 31.942 51.9555 31.2912V6.65876C51.9555 5.90777 52.2049 5.55731 52.6537 5.55731C53.1524 5.55731 53.4017 5.90777 53.4017 6.65876V31.2912Z" fill="#E1FD2C"/>
<path d="M61.8081 19.726V25.4335H68.0916V19.726H61.8081Z" fill="#E1FD2C"/>
<path d="M70.0143 37.5995H75.2006V16.7721L77.0956 37.5995H79.3397L81.1849 16.7721V37.5995H86.471V0.350462H79.4395L78.3424 18.4242L77.2453 0.350462H70.0143V37.5995Z" fill="#E1FD2C"/>
<path d="M95.5276 25.4335H94.0316L94.7796 11.2648L95.5276 25.4335ZM96.1759 37.5995H102.31L98.9686 0.350462H90.9896L87.8977 37.5995H93.3334L93.6825 30.8906H95.8269L96.1759 37.5995Z" fill="#E1FD2C"/>
<path d="M108.605 37.9499C110.749 37.9499 112.046 36.5982 112.893 35.2464C113.093 35.697 113.392 37.0487 113.542 37.5995H117.78V15.6706H110.5V20.527H111.796V31.6416C111.796 32.3926 111.497 32.7931 110.899 32.7931C110.3 32.7931 110.001 32.3926 110.001 31.6416V6.20817C110.001 5.55731 110.25 5.25692 110.699 5.25692C111.297 5.25692 111.447 5.60738 111.447 6.20817V14.3188H117.531V5.95784C117.531 2.95389 116.085 0 111.048 0H110.2C105.213 0 103.518 3.00395 103.518 6.4585V31.7918C103.518 35.0962 105.114 37.9499 108.455 37.9499H108.605Z" fill="#E1FD2C"/>
<path d="M126.84 25.4335H125.344L126.092 11.2648L126.84 25.4335ZM127.488 37.5995H133.622L130.281 0.350462H122.302L119.21 37.5995H124.646L124.995 30.8906H127.139L127.488 37.5995Z" fill="#E1FD2C"/>
<path d="M135.123 0.350462V6.0079H139.861L134.924 32.3926V37.5995H146.992V31.892H141.706L146.743 5.55731V0.350462H135.123Z" fill="#E1FD2C"/>
<path d="M155.164 0.350462H148.83V37.5995H155.164V0.350462Z" fill="#E1FD2C"/>
<path d="M157.181 0.350462V37.5995H162.468L162.418 15.2701L165.36 37.5995H171.195V0.350462H165.958L166.008 20.527L163.565 0.350462H157.181Z" fill="#E1FD2C"/>
<path d="M173.178 0.350462V37.5995H184V31.7918H179.362V21.0277H183.152V15.1199H179.362V6.05797H183.85V0.350462H173.178Z" fill="#E1FD2C"/>
</svg>
